<?xml version="1.0" encoding="UTF-8" standalone="no"?>
<!-- Generator: Adobe Illustrator 25.2.1, SVG Export Plug-In . SVG Version: 6.00 Build 0)  -->

<svg
   version="1.1"
   id="svg8"
   x="0px"
   y="0px"
   viewBox="0 0 16 16"
   style="enable-background:new 0 0 16 16;"
   xml:space="preserve"
   xmlns="http://www.w3.org/2000/svg"
   xmlns:svg="http://www.w3.org/2000/svg"><defs
   id="defs26" />
<style
   type="text/css"
   id="style2">
	.st0{fill-rule:evenodd;clip-rule:evenodd;}
	.st1{enable-background:new    ;}
</style>
<g
   id="layer1"
   style="fill:#ffffff;fill-opacity:1">
	
	<g
   id="g1780"
   transform="matrix(0.84013301,0,0,0.84480666,5.8777681,5.2558813)"
   style="fill:#ffffff;fill-opacity:1">
		<g
   class="st1"
   id="g15"
   style="fill:#ffffff;fill-opacity:1">
			<path
   d="M-7,2.6c0.4,0,0.7-0.3,0.9-0.6c0.2-0.4,0.3-0.9,0.3-1.6v-3.1c0-1,0.2-1.8,0.7-2.2c0.5-0.4,1.2-0.6,2.1-0.6v1.2     c-0.5,0-0.9,0.1-1.1,0.4c-0.2,0.3-0.3,0.7-0.3,1.2v3.1c0,1.4-0.4,2.4-1.3,2.9c0.8,0.5,1.3,1.5,1.3,2.9v3.1c0,0.5,0.1,0.9,0.3,1.2     c0.2,0.3,0.6,0.4,1.1,0.4V12c-0.9,0-1.6-0.2-2.1-0.6c-0.5-0.4-0.7-1.2-0.7-2.2V6.1c0-0.7-0.1-1.2-0.3-1.6C-6.3,4.1-6.6,3.9-7,3.8     V2.6z"
   id="path13"
   style="fill:#ffffff;fill-opacity:1" />
		</g>
		<g
   class="st1"
   id="g19"
   style="fill:#ffffff;fill-opacity:1">
			<path
   d="M12,3.8c-0.4,0-0.7,0.3-0.9,0.6c-0.2,0.4-0.3,0.9-0.3,1.6v3.1c0,1-0.2,1.8-0.7,2.2C9.6,11.8,8.9,12,8,12v-1.2     c0.5,0,0.9-0.1,1.1-0.4c0.2-0.3,0.3-0.7,0.3-1.2V6.1c0-1.4,0.4-2.4,1.3-2.9C9.8,2.8,9.4,1.8,9.4,0.4v-3.1c0-0.5-0.1-0.9-0.3-1.2     C8.9-4.2,8.5-4.3,8-4.3v-1.2c0.9,0,1.6,0.2,2.1,0.6c0.5,0.4,0.7,1.2,0.7,2.2v3.1c0,0.7,0.1,1.2,0.3,1.6c0.2,0.4,0.5,0.6,0.9,0.6     V3.8z"
   id="path17"
   style="fill:#ffffff;fill-opacity:1" />
		</g>
	</g>
</g>
<path
   id="path6"
   d="m 3.3574219,3.8164062 v 1.3828126 c 1.0033232,0 1.4730039,0.28658 1.8671875,0.7480468 0.3941836,0.4614668 0.6714619,1.1718097 0.9589844,1.9628906 0.2875224,0.791081 0.5848004,1.6624239 1.1992187,2.3886718 0.6144183,0.726248 1.5907845,1.234375 2.9003905,1.234375 v 0.705078 l 2.419922,-1.396484 -2.419922,-1.3984376 v 0.7050786 c -0.9922812,0 -1.4535208,-0.2828867 -1.8437499,-0.7441411 C 8.049224,8.9430425 7.7723245,8.2297558 7.484375,7.4375 7.1964255,6.6452442 6.8975214,5.7748639 6.2773438,5.0488281 5.6571662,4.3227924 4.6754141,3.8164062 3.3574219,3.8164062 Z"
   style="display:inline;fill:#ffffff;fill-opacity:1" /><path
   id="path6-4"
   style="display:inline;fill:#ffffff;fill-opacity:1"
   d="M 10.283203 3.8164062 L 10.283203 4.5214844 C 8.9735971 4.5214844 7.9972308 5.0296114 7.3828125 5.7558594 C 7.2975834 5.8566009 7.218376 5.9606825 7.1445312 6.0664062 C 7.3539198 6.507453 7.5124181 6.9538639 7.6640625 7.3710938 C 7.7135569 7.5072712 7.7630661 7.6357929 7.8125 7.765625 C 7.9979319 7.3237074 8.1960058 6.9381476 8.4394531 6.6503906 C 8.8296822 6.1891362 9.2909219 5.90625 10.283203 5.90625 L 10.283203 6.6113281 L 12.703125 5.2128906 L 10.283203 3.8164062 z M 6.125 8.3046875 C 5.8581651 9.0297501 5.5914636 9.677949 5.2246094 10.107422 C 4.8304258 10.568888 4.3607451 10.855469 3.3574219 10.855469 L 3.3574219 12.238281 C 4.6754141 12.238281 5.6571662 11.731895 6.2773438 11.005859 C 6.5447845 10.692769 6.7509911 10.352841 6.9238281 10.003906 C 6.5579682 9.4534502 6.328887 8.863341 6.125 8.3046875 z " /></svg>
