<?xml version="1.0" encoding="utf-8"?>
<!-- Generator: Adobe Illustrator 25.2.1, SVG Export Plug-In . SVG Version: 6.00 Build 0)  -->
<svg version="1.1"
	 id="svg8" inkscape:version="1.0.1 (3bc2e813f5, 2020-09-07)" sodipodi:docname="icon.svg" xmlns:cc="http://creativecommons.org/ns#" xmlns:dc="http://purl.org/dc/elements/1.1/" xmlns:inkscape="http://www.inkscape.org/namespaces/inkscape" xmlns:rdf="http://www.w3.org/1999/02/22-rdf-syntax-ns#" xmlns:sodipodi="http://sodipodi.sourceforge.net/DTD/sodipodi-0.dtd" xmlns:svg="http://www.w3.org/2000/svg"
	 xmlns="http://www.w3.org/2000/svg" xmlns:xlink="http://www.w3.org/1999/xlink" x="0px" y="0px" viewBox="0 0 16 16"
	 style="enable-background:new 0 0 16 16;" xml:space="preserve">
<style type="text/css">
	.st0{fill-rule:evenodd;clip-rule:evenodd;fill:#FFFFFF;}
	.st1{enable-background:new    ;}
	.st2{fill:#FFFFFF;}
</style>
<g id="layer1" inkscape:groupmode="layer" inkscape:label="Layer 1">
	<g id="g1796" transform="matrix(0.84013301,0,0,0.84480666,9.1202848,5.1613091)">
		<g id="g125_1_" transform="translate(-4.4142267,0.03811824)">
			<rect id="rect18_1_" x="-2.4" y="-2.6" class="st0" width="11.1" height="1.6"/>
			<rect id="rect18-7_1_" x="-0.5" y="-0.1" class="st0" width="9.2" height="1.6"/>
			<rect id="rect18-7-0_1_" x="1.3" y="2.4" class="st0" width="7.4" height="1.6"/>
			<rect id="rect18-7-0-9_1_" x="3.2" y="4.9" class="st0" width="5.5" height="1.6"/>
			<rect id="rect18-7-0-9-9_1_" x="5" y="7.5" class="st0" width="3.7" height="1.6"/>
		</g>
		<path class="st0" d="M-6.9-2.6H4.1V-1H-6.9V-2.6z M-5.1-0.1h9.2v1.6h-9.2V-0.1z M-3.2,2.4h7.4V4h-7.4V2.4z M-1.4,5h5.5v1.6h-5.5V5
			z M0.5,7.5h3.7v1.6H0.5V7.5z"/>
	</g>
	<g id="g1780" transform="matrix(0.84013301,0,0,0.84480666,5.8777681,5.2558813)">
		<g class="st1">
			<path class="st2" d="M-7,2.6c0.4,0,0.7-0.3,0.9-0.6c0.2-0.4,0.3-0.9,0.3-1.6v-3.1c0-1,0.2-1.8,0.7-2.2c0.5-0.4,1.2-0.6,2.1-0.6
				v1.2c-0.5,0-0.9,0.1-1.1,0.4c-0.2,0.3-0.3,0.7-0.3,1.2v3.1c0,1.4-0.4,2.4-1.3,2.9c0.8,0.5,1.3,1.5,1.3,2.9v3.1
				c0,0.5,0.1,0.9,0.3,1.2c0.2,0.3,0.6,0.4,1.1,0.4V12c-0.9,0-1.6-0.2-2.1-0.6c-0.5-0.4-0.7-1.2-0.7-2.2V6.1c0-0.7-0.1-1.2-0.3-1.6
				C-6.3,4.1-6.6,3.9-7,3.8V2.6z"/>
		</g>
		<g class="st1">
			<path class="st2" d="M12,3.8c-0.4,0-0.7,0.3-0.9,0.6c-0.2,0.4-0.3,0.9-0.3,1.6v3.1c0,1-0.2,1.8-0.7,2.2C9.6,11.8,8.9,12,8,12
				v-1.2c0.5,0,0.9-0.1,1.1-0.4c0.2-0.3,0.3-0.7,0.3-1.2V6.1c0-1.4,0.4-2.4,1.3-2.9C9.8,2.8,9.4,1.8,9.4,0.4v-3.1
				c0-0.5-0.1-0.9-0.3-1.2C8.9-4.2,8.5-4.3,8-4.3v-1.2c0.9,0,1.6,0.2,2.1,0.6c0.5,0.4,0.7,1.2,0.7,2.2v3.1c0,0.7,0.1,1.2,0.3,1.6
				c0.2,0.4,0.5,0.6,0.9,0.6V3.8z"/>
		</g>
	</g>
</g>
</svg>
